<svg xmlns="http://www.w3.org/2000/svg" xmlns:xlink="http://www.w3.org/1999/xlink" xml:space="preserve" viewBox="0 0 137.52 55.02"><defs><linearGradient id="c" x1="344.8" x2="386.4" y1="276.3" y2="276.6" gradientUnits="userSpaceOnUse"><stop offset="0" stop-color="#020203"/><stop offset="1" stop-opacity="0"/></linearGradient><linearGradient id="b" x1="405" x2="435.4" y1="259.9" y2="259.9" gradientUnits="userSpaceOnUse"><stop offset="0" stop-color="#25e3ff"/><stop offset="0" stop-color="#20dcff"/><stop offset=".7" stop-color="#1a9ae6"/><stop offset="1" stop-color="#337ee7"/></linearGradient><linearGradient xlink:href="#a" id="o" x1="268.6" x2="261.6" y1="160.9" y2="116.5" gradientTransform="rotate(180 192.7 84)" gradientUnits="userSpaceOnUse"/><linearGradient id="f" x1="370.7" x2="385.4" y1="261" y2="258.7" gradientTransform="translate(-317.78 -249.2)" gradientUnits="userSpaceOnUse"><stop offset="0" stop-color="#ff2c97"/><stop offset="1" stop-color="#c945bd"/></linearGradient><linearGradient id="l" x1="344.8" x2="386.4" y1="276.3" y2="276.6" gradientTransform="translate(-317.78 -249.2)" gradientUnits="userSpaceOnUse"><stop offset="0" stop-color="#7042ad"/><stop offset=".1" stop-color="#7442ab"/><stop offset=".3" stop-color="#8242a8"/><stop offset=".4" stop-color="#973fa3"/><stop offset=".6" stop-color="#b33b9a"/><stop offset=".7" stop-color="#d3338e"/><stop offset=".9" stop-color="#f7227f"/><stop offset="1" stop-color="#ff0071"/></linearGradient><linearGradient id="a" x1="266.8" x2="261.6" y1="164.6" y2="116.5" gradientTransform="rotate(180 351.7 208.6)" gradientUnits="userSpaceOnUse"><stop offset=".2" stop-color="#337ee7"/><stop offset=".7" stop-color="#4e4dc4"/></linearGradient><linearGradient id="p" x1="426.4" x2="403.2" y1="294.4" y2="268.5" gradientTransform="translate(-317.98 -249.2)" gradientUnits="userSpaceOnUse"><stop offset="0" stop-color="#4e4dc4"/><stop offset=".5" stop-color="#7c49c0"/><stop offset=".8" stop-color="#ab47be"/><stop offset="1" stop-color="#c945bd"/></linearGradient><linearGradient xlink:href="#b" id="s" x1="405" x2="427.9" y1="259.9" y2="259.8" gradientTransform="rotate(-2.8 -4829.15 6636.14)" gradientUnits="userSpaceOnUse"/><radialGradient xlink:href="#c" id="h" cx="58.2" cy="33.7" r="11.2" fx="58.2" fy="33.7" gradientTransform="matrix(-.56195 .2992 -.53337 -1.28284 99.4 64)" gradientUnits="userSpaceOnUse"/><radialGradient xlink:href="#c" id="j" cx="58.2" cy="33.7" r="11.2" fx="58.2" fy="33.7" gradientTransform="matrix(-.67078 .3156 -.63667 -1.35315 114.4 68)" gradientUnits="userSpaceOnUse"/><radialGradient xlink:href="#c" id="m" cx="58.2" cy="33.7" r="11.2" fx="58.2" fy="33.7" gradientTransform="matrix(-.56195 .2992 -.53337 -1.28284 99.4 64)" gradientUnits="userSpaceOnUse"/><radialGradient xlink:href="#c" id="q" cx="60.5" cy="28.8" r="11.2" fx="60.5" fy="28.8" gradientTransform="matrix(-.17023 .58504 -.59658 -.15513 78.5 9)" gradientUnits="userSpaceOnUse"/><filter id="k" width="1.1" height="1" x="0" y="0" color-interpolation-filters="sRGB"><feGaussianBlur stdDeviation=".3"/></filter><filter id="i" width="1.1" height="1" x="0" y="0" color-interpolation-filters="sRGB"><feGaussianBlur stdDeviation=".2"/></filter><filter id="n" width="1.1" height="1" x="0" y="0" color-interpolation-filters="sRGB"><feGaussianBlur stdDeviation=".2"/></filter><filter id="r" width="1.1" height="1" x="0" y="0" color-interpolation-filters="sRGB"><feGaussianBlur stdDeviation=".2"/></filter></defs><g transform="translate(-317.78 -249.2)"><path fill="url(#d)" d="m343.1 304 1.4-12.8c8 0 14.5-6.6 14.5-14.6h12.9c0 15.1-10.4 27.5-25.6 27.6z"/><linearGradient id="d" x1="344.5" x2="371.9" y1="290.4" y2="290.4" gradientUnits="userSpaceOnUse"><stop offset="0" stop-color="#2e71d0"/><stop offset=".1" stop-color="#2a79d3"/><stop offset=".3" stop-color="#228ade"/><stop offset=".6" stop-color="#13a8ed"/><stop offset=".8" stop-color="#16cffc"/><stop offset="1" stop-color="#25e3ff"/></linearGradient></g><g transform="translate(-243.38 -294.8)"><path fill="url(#e)" d="M311.6 349.7v-13c8 0 14.6-6.5 14.6-14.5h12.5a27 27 0 0 1-27 27.5z"/><linearGradient id="e" x1="386.4" x2="413.7" y1="290.4" y2="290.4" gradientTransform="translate(-74.8 45.6)" gradientUnits="userSpaceOnUse"><stop offset="0" stop-color="#fe0573"/><stop offset=".5" stop-color="#ff783b"/><stop offset="1" stop-color="#ffd025"/></linearGradient></g><path fill="url(#f)" d="M54.22 27.4h-13A27.8 27.8 0 0 1 69.02 0l-.4 13c-8 0-14.5 6.5-14.5 14.4z"/><path fill="#30383b" d="M95.52 27.4h-12.8" class="st8"/><g transform="translate(-318.08 -249.2)"><path fill="url(#g)" d="m344.7 262.2-.1-13a27.52 27.52 0 0 0 2 55l-1.4-13a15 15 0 0 1-15.1-14.5c0-8 6.6-14.5 14.6-14.5z"/><linearGradient id="g" x1="330.8" x2="331.3" y1="301.1" y2="256.2" gradientUnits="userSpaceOnUse"><stop offset=".2" stop-color="#2c75d2"/><stop offset=".6" stop-color="#4645b0"/><stop offset=".8" stop-color="#6543ad"/><stop offset=".9" stop-color="#7042ad"/></linearGradient></g><path fill="url(#h)" d="M52.6 33c.6 7.8-7.8 18.2-14.5 20L34 41.3c4.1-1.3 7.4-7.1 7.8-11.4 3.1-5.9 11.5-3 10.8 3.2z" filter="url(#i)" transform="matrix(1.05121 0 0 1.08328 -2.68 -3.2)"/><path fill="url(#j)" d="M58.5 35.3c.2 7.9-9.5 18.7-17.4 21.3L36.2 44c5-1.3 9.8-10 10-14.5 3.8-6.2 13-.6 12.3 5.9z" filter="url(#k)" transform="matrix(-.92012 .04032 -.04074 -.85239 97.95 49.07)"/><path fill="url(#l)" d="M54.32 27.4A27.6 27.6 0 0 0 26.62 0h-.3v13c8 0 14.9 6.4 14.9 14.4a27.49 27.49 0 0 0 27.4 27.5v-13c-8 0-14.3-6.5-14.3-14.5z"/><path fill="url(#m)" d="M52.6 33c.2 7.5-7.8 18.2-14.5 20L34 41.3c4.1-1.3 8.2-7.8 8.4-12 3.1-5.9 10.9-2.3 10.2 3.8z" filter="url(#n)" transform="matrix(1.05121 0 0 1.08328 38.32 -3.4)"/><path fill="url(#o)" d="m109.42 41.9.6 13a27.5 27.5 0 0 0 27.5-27.5A27.3 27.3 0 0 0 110.12 0l-.4 13c8.7-.1 14.9 6.4 14.9 14.4s-7.2 14.5-15.2 14.5z"/><path fill="url(#p)" d="M82.82 27.4a27.4 27.4 0 0 0 27.3 27.5v-13c-8 0-14.4-6.5-14.4-14.5A27 27 0 0 0 69.22 0h-.5l-.4 13c8 0 14.5 6.5 14.5 14.4z"/><path fill="url(#q)" d="M52.9 32.9C53 40.5 44.8 51.2 38 53l-4-12c4.1-1.2 7.6-7 7.8-11.3 3.1-5.9 11.7-3 11 3z" filter="url(#r)" transform="matrix(.77414 -.75829 .8361 .76568 20.22 24.2)"/><path fill="url(#s)" d="M94.32 22.2a6.5 6.5 0 0 1-5.7-10.1A26.7 26.7 0 0 1 110.12 0l.3 13c-2.5.2-7 .4-11.5 6-1.5 1.5-3 3-4.6 3.2z"/></svg>